G04 EAGLE Gerber RS-274X export*
G75*
%MOMM*%
%FSLAX34Y34*%
%LPD*%
%INSolderpaste Top*%
%IPPOS*%
%AMOC8*
5,1,8,0,0,1.08239X$1,22.5*%
G01*
%ADD10R,1.000000X2.850000*%
%ADD11R,5.550000X5.000000*%
%ADD12R,0.800000X1.200000*%
%ADD13R,0.600000X1.200000*%
%ADD14R,1.300000X1.400000*%
%ADD15R,0.870000X0.420000*%
%ADD16R,1.200000X0.800000*%
%ADD17R,0.630000X0.830000*%
%ADD18R,1.300000X1.500000*%
%ADD19R,1.200000X2.200000*%
%ADD20R,5.800000X6.400000*%
%ADD21R,1.500000X1.300000*%


D10*
X421700Y250600D03*
X467300Y250600D03*
D11*
X444500Y322600D03*
D10*
X924500Y206600D03*
X878900Y206600D03*
D11*
X901700Y134600D03*
D10*
X929700Y250600D03*
X975300Y250600D03*
D11*
X952500Y322600D03*
D10*
X1026100Y206600D03*
X980500Y206600D03*
D11*
X1003300Y134600D03*
D10*
X1031300Y250600D03*
X1076900Y250600D03*
D11*
X1054100Y322600D03*
D10*
X1127700Y206600D03*
X1082100Y206600D03*
D11*
X1104900Y134600D03*
D10*
X1132900Y250600D03*
X1178500Y250600D03*
D11*
X1155700Y322600D03*
D10*
X1229300Y206600D03*
X1183700Y206600D03*
D11*
X1206500Y134600D03*
D10*
X1234500Y250600D03*
X1280100Y250600D03*
D11*
X1257300Y322600D03*
D10*
X1330900Y206600D03*
X1285300Y206600D03*
D11*
X1308100Y134600D03*
D10*
X1336100Y250600D03*
X1381700Y250600D03*
D11*
X1358900Y322600D03*
D10*
X518100Y206600D03*
X472500Y206600D03*
D11*
X495300Y134600D03*
D10*
X1432500Y206600D03*
X1386900Y206600D03*
D11*
X1409700Y134600D03*
D10*
X1437700Y250600D03*
X1483300Y250600D03*
D11*
X1460500Y322600D03*
D10*
X1534100Y206600D03*
X1488500Y206600D03*
D11*
X1511300Y134600D03*
D10*
X1539300Y250600D03*
X1584900Y250600D03*
D11*
X1562100Y322600D03*
D10*
X1635700Y206600D03*
X1590100Y206600D03*
D11*
X1612900Y134600D03*
D10*
X523300Y250600D03*
X568900Y250600D03*
D11*
X546100Y322600D03*
D10*
X619700Y206600D03*
X574100Y206600D03*
D11*
X596900Y134600D03*
D10*
X624900Y250600D03*
X670500Y250600D03*
D11*
X647700Y322600D03*
D10*
X721300Y206600D03*
X675700Y206600D03*
D11*
X698500Y134600D03*
D10*
X726500Y250600D03*
X772100Y250600D03*
D11*
X749300Y322600D03*
D10*
X822900Y206600D03*
X777300Y206600D03*
D11*
X800100Y134600D03*
D10*
X828100Y250600D03*
X873700Y250600D03*
D11*
X850900Y322600D03*
D12*
X428100Y368300D03*
X410100Y368300D03*
X867300Y368300D03*
X885300Y368300D03*
X936100Y368300D03*
X918100Y368300D03*
X968900Y368300D03*
X986900Y368300D03*
X1037700Y368300D03*
X1019700Y368300D03*
X1070500Y368300D03*
X1088500Y368300D03*
X1139300Y368300D03*
X1121300Y368300D03*
X1172100Y368300D03*
X1190100Y368300D03*
X1240900Y368300D03*
X1222900Y368300D03*
X1273700Y368300D03*
X1291700Y368300D03*
X1342500Y368300D03*
X1324500Y368300D03*
X460900Y368300D03*
X478900Y368300D03*
X1375300Y368300D03*
X1393300Y368300D03*
X1444100Y368300D03*
X1426100Y368300D03*
X1476900Y368300D03*
X1494900Y368300D03*
X1527700Y368300D03*
X1545700Y368300D03*
X1578500Y368300D03*
X1596500Y368300D03*
X529700Y368300D03*
X511700Y368300D03*
X562500Y368300D03*
X580500Y368300D03*
X631300Y368300D03*
X613300Y368300D03*
X664100Y368300D03*
X682100Y368300D03*
X732900Y368300D03*
X714900Y368300D03*
X765700Y368300D03*
X783700Y368300D03*
X834500Y368300D03*
X816500Y368300D03*
D13*
X552450Y403800D03*
X565150Y403800D03*
X577850Y403800D03*
X590550Y403800D03*
X603250Y403800D03*
X615950Y403800D03*
X628650Y403800D03*
X641350Y403800D03*
X641350Y459800D03*
X628650Y459800D03*
X615950Y459800D03*
X603250Y459800D03*
X590550Y459800D03*
X577850Y459800D03*
X565150Y459800D03*
X552450Y459800D03*
X958850Y403800D03*
X971550Y403800D03*
X984250Y403800D03*
X996950Y403800D03*
X1009650Y403800D03*
X1022350Y403800D03*
X1035050Y403800D03*
X1047750Y403800D03*
X1047750Y459800D03*
X1035050Y459800D03*
X1022350Y459800D03*
X1009650Y459800D03*
X996950Y459800D03*
X984250Y459800D03*
X971550Y459800D03*
X958850Y459800D03*
X1365250Y403800D03*
X1377950Y403800D03*
X1390650Y403800D03*
X1403350Y403800D03*
X1416050Y403800D03*
X1428750Y403800D03*
X1441450Y403800D03*
X1454150Y403800D03*
X1454150Y459800D03*
X1441450Y459800D03*
X1428750Y459800D03*
X1416050Y459800D03*
X1403350Y459800D03*
X1390650Y459800D03*
X1377950Y459800D03*
X1365250Y459800D03*
D14*
X23200Y223600D03*
X48600Y223600D03*
X74000Y223600D03*
X99400Y223600D03*
X23900Y128200D03*
X49300Y128200D03*
X74700Y128200D03*
X100100Y128200D03*
D12*
X110600Y50800D03*
X92600Y50800D03*
D15*
X64950Y88900D03*
X87450Y88900D03*
D12*
X47100Y254000D03*
X29100Y254000D03*
D16*
X419100Y212200D03*
X419100Y194200D03*
X495300Y245000D03*
X495300Y263000D03*
X495300Y321200D03*
X495300Y339200D03*
X596900Y245000D03*
X596900Y263000D03*
X596900Y321200D03*
X596900Y339200D03*
X698500Y245000D03*
X698500Y263000D03*
X698500Y321200D03*
X698500Y339200D03*
X800100Y245000D03*
X800100Y263000D03*
X800100Y321200D03*
X800100Y339200D03*
X901700Y245000D03*
X901700Y263000D03*
X901700Y321200D03*
X901700Y339200D03*
X1003300Y245000D03*
X1003300Y263000D03*
X1003300Y321200D03*
X1003300Y339200D03*
X1104900Y245000D03*
X1104900Y263000D03*
X1104900Y321200D03*
X1104900Y339200D03*
X1206500Y245000D03*
X1206500Y263000D03*
X1206500Y321200D03*
X1206500Y339200D03*
X1308100Y245000D03*
X1308100Y263000D03*
X1308100Y321200D03*
X1308100Y339200D03*
X1409700Y245000D03*
X1409700Y263000D03*
X1409700Y321200D03*
X1409700Y339200D03*
X1511300Y245000D03*
X1511300Y263000D03*
X1511300Y321200D03*
X1511300Y339200D03*
X1621790Y339200D03*
X1621790Y321200D03*
D17*
X100400Y292100D03*
X77400Y292100D03*
D18*
X231800Y368300D03*
X250800Y368300D03*
X231800Y330200D03*
X250800Y330200D03*
D19*
X78800Y336100D03*
X124400Y336100D03*
D20*
X101600Y399100D03*
D12*
X92600Y457200D03*
X110600Y457200D03*
X168800Y88900D03*
X186800Y88900D03*
D21*
X482600Y422300D03*
X482600Y441300D03*
X889000Y422300D03*
X889000Y441300D03*
X1524000Y435000D03*
X1524000Y454000D03*
M02*
